P3
# Holi
# Holi
# Holi
# Holi
8 8
# Holi
# Holi
# Holi
# Holi
255
# Holi
# Holi
# Holi
# Holi
# Holi
# Holi
255   0  0    0   255   0    0  0 255	255   0  0    0   255   0    0  0 255    0   255   0    0  0 255
255   0  0    0   255   0    0  0 255	255   0  0    0   255   0    0  0 255    0   255   0    0  0 255
255   0  0    0   255   0    0  0 255    0   255   0    0  0 255    255 255  0    255 255 255    0  0   0
255   0  0    0   255   0    0  0 255	255   0  0    0   255   0    0  0 255    0   255   0    0  0 255
255   0  0    0   255   0    0  0 255    0   255   0    0  0 255    255 255  0    255 255 255    0  0   0
255   0  0    0   255   0    0  0 255    0   255   0    0  0 255    255 255  0    255 255 255    0  0   0
255   0  0    0   255   0    0  0 255	255   0  0    0   255   0    0  0 255    0   255   0    0  0 255
255   0  0    0   255   0    0  0 255    0   255   0    0  0 255    255 255  0    255 255 255    0  0   0
